<svg xmlns="http://www.w3.org/2000/svg" width="22" height="26" viewBox="0 0 22 26" fill="#1797B1"><path d="M21.2543 9.3954C20.5797 8.59726 19.8074 7.98131 18.9375 7.54755C18.0676 7.09643 17.1976 6.87087 16.3277 6.87087C15.1737 6.87087 14.2683 7.05305 13.6114 7.41742C12.9722 7.76443 12.2532 7.93794 11.4543 7.93794C10.6199 7.93794 9.8387 7.76443 9.1108 7.41742C8.40065 7.05305 7.53959 6.87087 6.52763 6.87087C5.55117 6.87087 4.57472 7.14848 3.59826 7.7037C2.63956 8.25893 1.83177 9.03103 1.17488 10.02C0.713282 10.714 0.384838 11.5556 0.189547 12.5445C-0.00574386 13.5162 -0.0501282 14.5572 0.0563942 15.6677C0.18067 16.7781 0.455853 17.9319 0.881943 19.1291C1.30803 20.309 1.89391 21.4541 2.63956 22.5646C3.17217 23.38 3.80243 24.1522 4.53033 24.8809C5.25824 25.627 6.09266 26 7.03361 26C7.88579 26 8.55155 25.8265 9.0309 25.4795C9.51025 25.1325 10.318 24.9503 11.4543 24.9329C12.5905 24.9329 13.3983 25.1064 13.8777 25.4535C14.357 25.8178 15.0139 26 15.8483 26C16.7893 25.9826 17.6326 25.5749 18.3782 24.7768C19.1417 23.9786 19.7897 23.1805 20.3223 22.3824C20.7129 21.8098 21.0147 21.324 21.2277 20.9249C21.4408 20.5259 21.6982 19.9967 22 19.3373C20.8993 18.9383 20.0382 18.305 19.4168 17.4374C18.7955 16.5699 18.4404 15.6416 18.3516 14.6527C18.2628 13.6463 18.4493 12.666 18.9109 11.7117C19.3902 10.7401 20.1714 9.96797 21.2543 9.3954ZM14.8097 4.06006C15.2358 3.53954 15.582 2.92359 15.8483 2.21221C16.1146 1.50083 16.1857 0.76343 16.0614 0C15.3867 0.0520521 14.6855 0.268936 13.9576 0.650651C13.2297 1.03237 12.626 1.50083 12.1467 2.05606C11.7206 2.55923 11.3655 3.1665 11.0815 3.87788C10.8152 4.57191 10.7441 5.28328 10.8684 6.01201C11.6318 6.02936 12.3686 5.84718 13.0788 5.46547C13.7889 5.08375 14.3659 4.61528 14.8097 4.06006Z"></path></svg>