<svg xmlns="http://www.w3.org/2000/svg" width="50" height="50" viewBox="0 0 50 50" fill="none"><circle cx="25" cy="25" r="25" fill="#B9E0E8"></circle><path d="M25 6C19.9609 6 15.1282 8.00178 11.565 11.565C8.00178 15.1282 6 19.9609 6 25C6 30.0391 8.00178 34.8718 11.565 38.435C15.1282 41.9982 19.9609 44 25 44L25 25L25 6Z" fill="white"></path><circle cx="25" cy="25" r="13" fill="#B9E0E8"></circle><path d="M25 38C26.7072 38 28.3977 37.6637 29.9749 37.0104C31.5521 36.3571 32.9852 35.3995 34.1924 34.1924C35.3995 32.9852 36.3571 31.5521 37.0104 29.9749C37.6637 28.3977 38 26.7072 38 25C38 23.2928 37.6637 21.6023 37.0104 20.0251C36.3571 18.4479 35.3995 17.0148 34.1924 15.8076C32.9852 14.6004 31.5521 13.6429 29.9749 12.9896C28.3977 12.3363 26.7072 12 25 12L25 38Z" fill="#1797B1"></path></svg>