<svg xmlns="http://www.w3.org/2000/svg" width="87" height="87" viewBox="0 0 87 87" fill="none">
  <circle cx="43.5" cy="43.5" r="43.5" fill="#FF6A13"></circle>
  <path d="M52.682 35.988C52.682 34.8 53.0193 33.8833 53.694 33.238C54.3833 32.5927 55.2707 32.27 56.356 32.27C57.4413 32.27 58.3213 32.5927 58.996 33.238C59.6707 33.8833 60.008 34.8 60.008 35.988C60.008 37.176 59.6707 38.0927 58.996 38.738C58.3213 39.3833 57.4413 39.706 56.356 39.706C55.2707 39.706 54.3833 39.3833 53.694 38.738C53.0193 38.0927 52.682 37.176 52.682 35.988ZM67.62 32.512L59.15 48H55.52L63.99 32.512H67.62ZM56.334 34.47C55.63 34.47 55.278 34.976 55.278 35.988C55.278 36.9853 55.63 37.484 56.334 37.484C56.6713 37.484 56.9353 37.3593 57.126 37.11C57.3167 36.8607 57.412 36.4867 57.412 35.988C57.412 34.976 57.0527 34.47 56.334 34.47ZM63.154 44.524C63.154 43.336 63.4913 42.4193 64.166 41.774C64.8407 41.1287 65.7207 40.806 66.806 40.806C67.8913 40.806 68.7713 41.1287 69.446 41.774C70.1207 42.4193 70.458 43.336 70.458 44.524C70.458 45.712 70.1207 46.6287 69.446 47.274C68.7713 47.9193 67.8913 48.242 66.806 48.242C65.7207 48.242 64.8407 47.9193 64.166 47.274C63.4913 46.6287 63.154 45.712 63.154 44.524ZM66.784 43.006C66.4467 43.006 66.1827 43.1307 65.992 43.38C65.816 43.6293 65.728 44.0107 65.728 44.524C65.728 45.5213 66.08 46.02 66.784 46.02C67.1213 46.02 67.3853 45.8953 67.576 45.646C67.7667 45.3967 67.862 45.0227 67.862 44.524C67.862 44.0253 67.7667 43.6513 67.576 43.402C67.3853 43.138 67.1213 43.006 66.784 43.006Z" fill="white"></path>
  <path d="M49.124 38.084H37.892V43.052C38.372 42.524 39.044 42.092 39.908 41.756C40.772 41.42 41.708 41.252 42.716 41.252C44.516 41.252 46.004 41.66 47.18 42.476C48.38 43.292 49.256 44.348 49.808 45.644C50.36 46.94 50.636 48.344 50.636 49.856C50.636 52.664 49.844 54.896 48.26 56.552C46.676 58.184 44.444 59 41.564 59C39.644 59 37.976 58.676 36.56 58.028C35.144 57.356 34.052 56.432 33.284 55.256C32.516 54.08 32.096 52.724 32.024 51.188H38.036C38.18 51.932 38.528 52.556 39.08 53.06C39.632 53.54 40.388 53.78 41.348 53.78C42.476 53.78 43.316 53.42 43.868 52.7C44.42 51.98 44.696 51.02 44.696 49.82C44.696 48.644 44.408 47.744 43.832 47.12C43.256 46.496 42.416 46.184 41.312 46.184C40.496 46.184 39.824 46.388 39.296 46.796C38.768 47.18 38.42 47.696 38.252 48.344H32.312V32.684H49.124V38.084Z" fill="white"></path>
  <rect x="20" y="43" width="8" height="4" fill="white"></rect>
</svg>