<svg xmlns="http://www.w3.org/2000/svg" width="48" height="48" viewBox="0 0 48 48" fill="#B9E0E8"><path d="M45.4592 31.8516V7.125H2.54077V31.8516H0V36.8917C0 39.0615 1.7655 40.827 3.9353 40.827H44.0647C46.2345 40.827 48 39.0615 48 36.8917V31.8516H45.4592ZM5.35327 9.9375H42.6467V31.8516H26.4375V32.8125H21.5625V31.8516H5.35327V9.9375ZM45.1875 36.8917C45.1875 37.5106 44.684 38.0145 44.0647 38.0145H3.9353C3.31604 38.0145 2.8125 37.5106 2.8125 36.8917V34.6641H18.75V35.625H29.25V34.6641H45.1875V36.8917Z"></path><path d="M17.7617 13.8289H30.2415V16.6414H17.7617V13.8289Z" fill="#1797B1"></path><path d="M12.5898 19.582H35.411V22.3945H12.5898V19.582Z" fill="#1797B1"></path><path d="M12.5898 25.3352H35.411V28.1477H12.5898V25.3352Z" fill="#1797B1"></path></svg>