<svg xmlns="http://www.w3.org/2000/svg" width="24" height="26" viewBox="0 0 24 26" fill="#ffffff"><path d="M4.7872 0.415811C3.7856 -0.146408 2.6096 -0.133408 1.6144 0.423935L13.2784 11.3514L17.1968 7.37205L4.7872 0.415811Z"></path><path d="M0.448 1.54187C0.1632 2.01472 0 2.55582 0 3.12941V22.8656C0 23.4213 0.1488 23.951 0.4176 24.4141L12.1472 12.5019L0.448 1.54187Z"></path><path d="M22.392 10.2839L18.6544 8.18937L14.4544 12.4531L19.6016 17.2742L22.3936 15.7095C23.3984 15.144 24 14.13 24 12.9959C23.9984 11.8617 23.3984 10.8477 22.392 10.2839Z"></path><path d="M13.3232 13.6036L1.5616 25.5483C2.072 25.844 2.632 26 3.1952 26C3.7392 26 4.2864 25.8603 4.7872 25.5791L18.1264 18.1029L13.3232 13.6036Z"></path></svg>