<svg xmlns="http://www.w3.org/2000/svg" width="48" height="48" viewBox="0 0 48 48" fill="#B9E0E8"><g clip-path="url(#clip0)"><path d="M44.2537 23.508L43.1093 13.629C47.5826 10.3873 49.4371 4.94727 46.7579 2.26806C45.6138 1.12402 43.826 0.750848 41.8532 1.24414C40.1057 1.68103 38.3134 2.75146 36.8068 4.25806C36.7885 4.27673 36.7709 4.29578 36.7526 4.31409L23.5273 2.78186L0 26.3095L20.7261 47.0356L44.2537 23.508ZM42.5358 3.97461C43.5264 3.72705 44.3398 3.83032 44.7675 4.25806C45.809 5.29956 44.8551 8.18751 42.7219 10.2863L42.3941 7.45728L40.0917 5.15491C40.8952 4.58618 41.7404 4.17346 42.5358 3.97461ZM24.5552 5.73462L34.7685 6.91785C34.3389 7.67628 34.0152 8.45484 33.8141 9.22645L32.8265 8.23878L30.8365 10.2288L36.8068 16.1995L38.7972 14.2091L36.8068 12.2191C36.3791 11.7914 36.2758 10.978 36.5234 9.98744C36.7442 9.10413 37.2283 8.16004 37.897 7.28003L38.2812 7.32471L39.7113 8.75477L41.3013 22.4804L20.7261 43.0552L3.98035 26.3095L24.5552 5.73462Z"></path><path d="M15.5342 20.8235C13.2065 20.8235 11.3125 22.7175 11.3125 25.0455C11.3125 27.3732 13.2065 29.2672 15.5342 29.2672C17.8622 29.2672 19.7562 27.3732 19.7562 25.0455C19.7562 22.7175 17.8622 20.8235 15.5342 20.8235ZM15.5342 26.4525C14.7582 26.4525 14.1272 25.8212 14.1272 25.0455C14.1272 24.2695 14.7582 23.6382 15.5342 23.6382C16.3102 23.6382 16.9415 24.2695 16.9415 25.0455C16.9415 25.8212 16.3106 26.4525 15.5342 26.4525Z" fill="#1797B1"></path><path d="M29.6084 29.2672C31.9364 29.2672 33.8305 27.3732 33.8305 25.0455C33.8305 22.7175 31.9364 20.8235 29.6084 20.8235C27.2804 20.8235 25.3867 22.7175 25.3867 25.0455C25.3867 27.3732 27.2804 29.2672 29.6084 29.2672ZM29.6084 23.6382C30.3844 23.6382 31.0158 24.2695 31.0158 25.0455C31.0158 25.8212 30.3844 26.4525 29.6084 26.4525C28.8324 26.4525 28.2011 25.8212 28.2011 25.0455C28.2011 24.2695 28.8324 23.6382 29.6084 23.6382Z" fill="#1797B1"></path><path d="M22.592 16.3708L25.3683 16.8334L22.5536 33.7208L19.7773 33.258L22.592 16.3708Z" fill="#1797B1"></path></g><defs><clipPath id="clip0"><rect width="48" height="48" fill="white"></rect></clipPath></defs></svg>