<svg xmlns="http://www.w3.org/2000/svg" width="48" height="48" viewBox="0 0 48 48" fill="#FF6A13"><path d="M28.2209 5.625V4.21875C28.2209 1.89253 26.3284 0 24.0022 0C21.6759 0 19.7834 1.89253 19.7834 4.21875V5.625H7.125V48H40.8794V5.625H28.2209ZM22.5959 4.21875C22.5959 3.44334 23.2268 2.8125 24.0022 2.8125C24.7776 2.8125 25.4084 3.44334 25.4084 4.21875V8.4375H30.5989V12.1875H17.4054V8.4375H22.5959V4.21875ZM38.0668 45.1875H9.9375V8.4375H14.5929V15H33.4114V8.4375H38.0668V45.1875Z"></path><path d="M14.4375 24H17.25V22.3125H18.9375V19.5H17.25V17.8125H14.4375V19.5H12.75V22.3125H14.4375V24Z" fill="#1797B1"></path><path d="M21.75 19.5H33.4121V22.3125H21.75V19.5Z" fill="#1797B1"></path><path d="M12.75 26.8125H32.581V29.625H12.75V26.8125Z" fill="#1797B1"></path><path d="M12.75 32.4375H25.9951V35.25H12.75V32.4375Z" fill="#1797B1"></path><path d="M12.75 38.0625H29.6279V40.875H12.75V38.0625Z" fill="#1797B1"></path><path d="M32.4375 38.0625H35.25V40.875H32.4375V38.0625Z" fill="#1797B1"></path></svg>